<svg xmlns="http://www.w3.org/2000/svg" viewBox="0 0 32 32">
  <path fill="#212121" d="M31.296 15.301C31.295 6.849 24.441-.002 15.988 0S.685 6.855.687 15.308c.002 6.788 4.422 12.543 10.54 14.545l.108.031a.667.667 0 00.529-.065.636.636 0 00.283-.357l3.865-12.25a1.913 1.913 0 10-.852-3.63l.011-.005-5.106-5.107a.638.638 0 00-.902.902l5.103 5.109a1.873 1.873 0 00.533 2.306l.004.003-3.683 11.673C3.842 25.782.116 17.709 2.796 10.431S13.55-.573 20.828 2.108c7.278 2.681 11.004 10.754 8.323 18.032-1.345 3.581-4.003 6.406-7.374 7.938l-.088.036-.398-1.874a.639.639 0 00-1.049-.343l.001-.001-3.837 3.426a.637.637 0 00.227 1.083l.005.001 4.899 1.563a.637.637 0 00.818-.744l.001.004-.391-1.839c5.528-2.374 9.329-7.772 9.329-14.057v-.034.002zm-15.304-.637a.638.638 0 010 1.276.638.638 0 010-1.276zm2.1 14.864l2.184-1.948.603 2.84-2.787-.892z"/>
  <path fill="#2196f3" d="M15.354 3.185V4.46a.638.638 0 001.276 0V3.185a.638.638 0 10-1.276 0zM3.876 14.664a.638.638 0 000 1.276h1.275a.638.638 0 000-1.276H3.876zm24.232 1.275a.638.638 0 000-1.276h-1.275a.638.638 0 000 1.276h1.275z"/>
</svg>
